<svg id="Layer_1" data-name="Layer 1" xmlns="http://www.w3.org/2000/svg" xmlns:xlink="http://www.w3.org/1999/xlink" viewBox="0 0 95 90"><defs><style>.cls-1{opacity:0.4;}.cls-2{fill:url(#linear-gradient);}.cls-3{fill:#bfe4ff;}.cls-4{fill:#fff;}.cls-5{fill:#ffe21f;}.cls-6{fill:#454545;}.cls-7{fill:url(#linear-gradient-2);}.cls-8{fill:#ffbd49;}.cls-9{fill:#ffdb6f;}.cls-10{fill:url(#linear-gradient-3);}.cls-11{fill:url(#linear-gradient-4);}.cls-12{fill:url(#linear-gradient-5);}.cls-13{fill:url(#linear-gradient-6);}.cls-14{fill:url(#linear-gradient-7);}.cls-15{fill:url(#linear-gradient-8);}.cls-16{fill:url(#linear-gradient-9);}.cls-17{fill:url(#linear-gradient-10);}.cls-18{fill:none;stroke:#939393;stroke-miterlimit:4;stroke-width:2px;}</style><linearGradient id="linear-gradient" x1="-1023.61" y1="-81.63" x2="-1023.61" y2="-82.63" gradientTransform="matrix(62.32, 0, 0, -43.17, 63853.99, -3491.19)" gradientUnits="userSpaceOnUse"><stop offset="0" stop-color="#fff0a7"/><stop offset="1" stop-color="#ffe65c"/></linearGradient><linearGradient id="linear-gradient-2" x1="-955.69" y1="-267.18" x2="-955.69" y2="-268.18" gradientTransform="matrix(6.49, 0, 0, -4.32, 6291.21, -1109.52)" xlink:href="#linear-gradient"/><linearGradient id="linear-gradient-3" x1="-1014.08" y1="-244.31" x2="-1014.08" y2="-245.31" gradientTransform="matrix(28.24, 0, 0, -4.86, 28697.58, -1128.45)" gradientUnits="userSpaceOnUse"><stop offset="0" stop-color="#606082"/><stop offset="0.01" stop-color="#acacac"/><stop offset="1" stop-color="#414141"/></linearGradient><linearGradient id="linear-gradient-4" x1="-1023.07" y1="-170.28" x2="-1023.07" y2="-171.28" gradientTransform="matrix(58.37, 0, 0, -8.15, 59776.68, -1319.82)" xlink:href="#linear-gradient-3"/><linearGradient id="linear-gradient-5" x1="-955.7" y1="-267.22" x2="-955.7" y2="-268.22" gradientTransform="matrix(6.49, 0, 0, -4.32, 6234.37, -1109.45)" xlink:href="#linear-gradient"/><linearGradient id="linear-gradient-6" x1="-1023.61" y1="-81.63" x2="-1023.61" y2="-82.63" gradientTransform="matrix(62.32, 0, 0, -43.17, 63828.99, -3491.5)" xlink:href="#linear-gradient"/><linearGradient id="linear-gradient-7" x1="-955.69" y1="-267.18" x2="-955.69" y2="-268.18" gradientTransform="matrix(6.49, 0, 0, -4.32, 6266.21, -1109.83)" xlink:href="#linear-gradient"/><linearGradient id="linear-gradient-8" x1="-1014.08" y1="-244.31" x2="-1014.08" y2="-245.31" gradientTransform="matrix(28.24, 0, 0, -4.86, 28672.58, -1128.76)" xlink:href="#linear-gradient-3"/><linearGradient id="linear-gradient-9" x1="-1023.07" y1="-170.28" x2="-1023.07" y2="-171.28" gradientTransform="matrix(58.37, 0, 0, -8.15, 59751.68, -1320.14)" xlink:href="#linear-gradient-3"/><linearGradient id="linear-gradient-10" x1="-955.7" y1="-267.22" x2="-955.7" y2="-268.22" gradientTransform="matrix(6.49, 0, 0, -4.32, 6209.37, -1109.77)" xlink:href="#linear-gradient"/></defs><g id="Group_668" data-name="Group 668" class="cls-1"><g id="car_copy" data-name="car copy"><path id="Path_407" data-name="Path 407" class="cls-2" d="M91.14,60.26a9.35,9.35,0,0,0-2-5.24,16.12,16.12,0,0,1-3.13-6.12,74.11,74.11,0,0,0-5.23-11.25,9,9,0,0,0-6.61-4.36c-5.55-.72-22.88-.72-28.42,0a9,9,0,0,0-6.62,4.36A75.08,75.08,0,0,0,33.94,48.9,16.12,16.12,0,0,1,30.81,55a9.42,9.42,0,0,0-2,5.24c-.2,4.13,1,5,2.07,14.37a1.46,1.46,0,0,0,1.45,1.29H87.63a1.45,1.45,0,0,0,1.45-1.29c.3-2.62,1.19-7.93,1.19-7.93A19.24,19.24,0,0,0,91.14,60.26Z"/><path id="Path_408" data-name="Path 408" class="cls-3" d="M83.63,48.33A77.7,77.7,0,0,0,79,38.43a7.72,7.72,0,0,0-5.59-3.75c-5.28-.7-21.5-.7-26.74,0A7.72,7.72,0,0,0,41,38.43a79.21,79.21,0,0,0-4.69,9.9A300.92,300.92,0,0,0,83.63,48.33Z"/><path id="Path_409" data-name="Path 409" class="cls-4" d="M82.54,53.38a9.05,9.05,0,0,0-1.72.75A20.26,20.26,0,0,1,78,55.46c-1.59.6-1.86,1.51-1.86,1.51l-.14.19A2.54,2.54,0,0,0,78.56,61a31,31,0,0,0,7-1.85A2.5,2.5,0,0,0,87,57.49a2.25,2.25,0,0,0,0-.22,3.5,3.5,0,0,0-4.54-3.89Z"/><path id="Path_410" data-name="Path 410" class="cls-5" d="M85.85,67.77H82.4a.6.6,0,0,0-.59.58.56.56,0,0,0,.18.42l3.45,3.45a.58.58,0,0,0,.82,0,.56.56,0,0,0,.18-.42V68.36a.6.6,0,0,0-.58-.59Z"/><path id="Path_411" data-name="Path 411" class="cls-6" d="M89.08,74.63a1.46,1.46,0,0,1-1.45,1.29H81v3.85a2.46,2.46,0,0,0,2.47,2.47h4.17a2.47,2.47,0,0,0,2.47-2.47h0V67.71C89.83,69.38,89.3,72.72,89.08,74.63Z"/><path id="Path_412" data-name="Path 412" class="cls-7" d="M92,46a2,2,0,0,0-2-1.51H88.36a1.94,1.94,0,0,0-1.93,1.94h0V47.6h-.88l.51,1.2H88a7,7,0,0,0,2.91-.63A1.93,1.93,0,0,0,92,46Z"/><circle id="Ellipse_36" data-name="Ellipse 36" class="cls-8" cx="83.63" cy="56.49" r="2.43"/><circle id="Ellipse_37" data-name="Ellipse 37" class="cls-9" cx="78.74" cy="58.41" r="1.78"/><path id="Path_413" data-name="Path 413" class="cls-10" d="M74.12,58.41l-2.79,4.86H48.67l-2.79-4.86Z"/><path id="Path_414" data-name="Path 414" class="cls-4" d="M44,57.16,43.82,57s-.27-.9-1.86-1.5a21.55,21.55,0,0,1-2.78-1.34,9.05,9.05,0,0,0-1.72-.75A3.51,3.51,0,0,0,33,55.61a3.58,3.58,0,0,0-.13,1.66c0,.07,0,.14.05.22a2.5,2.5,0,0,0,1.51,1.7,31.12,31.12,0,0,0,7,1.86,2.56,2.56,0,0,0,2.9-2.15A2.59,2.59,0,0,0,44,57.16Z"/><path id="Path_415" data-name="Path 415" class="cls-5" d="M37.6,67.77H34.15a.58.58,0,0,0-.58.58h0v3.45a.57.57,0,0,0,.58.58.61.61,0,0,0,.42-.17L38,68.77a.59.59,0,0,0,0-.83A.58.58,0,0,0,37.6,67.77Z"/><path id="Path_416" data-name="Path 416" class="cls-11" d="M83,73.79c-3.59-6.21-7.72-6-7.72-6H44.75s-4.13-.19-7.73,6H30.81l.08.8a1.46,1.46,0,0,0,1.45,1.33H87.66a1.46,1.46,0,0,0,1.45-1.32l.07-.8Z"/><path id="Path_417" data-name="Path 417" class="cls-6" d="M32.37,75.92a1.46,1.46,0,0,1-1.45-1.29c-.22-1.91-.75-5.25-1-6.92V79.77a2.47,2.47,0,0,0,2.48,2.47h4.16A2.47,2.47,0,0,0,39,79.77h0V75.92Z"/><path id="Path_418" data-name="Path 418" class="cls-12" d="M33.57,47.6V46.42a2,2,0,0,0-1.93-1.94H30A2,2,0,0,0,28,46a1.93,1.93,0,0,0,1.08,2.18A7,7,0,0,0,32,48.8h1.94l.51-1.2Z"/><circle id="Ellipse_38" data-name="Ellipse 38" class="cls-8" cx="36.37" cy="56.49" r="2.43"/><circle id="Ellipse_39" data-name="Ellipse 39" class="cls-9" cx="41.26" cy="58.41" r="1.78"/><g id="Group_663" data-name="Group 663"><path id="Path_419" data-name="Path 419" d="M72.91,69.47H47.09a.73.73,0,1,0,0,1.46H72.91a.73.73,0,1,0,0-1.46Z"/><path id="Path_420" data-name="Path 420" d="M72.91,72.39H47.09a.73.73,0,1,0,0,1.46H72.91a.73.73,0,1,0,0-1.46Z"/></g></g></g><g id="Group_666" data-name="Group 666"><g id="car_copy-2" data-name="car copy-2"><path id="Path_407-2" data-name="Path 407-2" class="cls-13" d="M66.14,60a9.35,9.35,0,0,0-2-5.24,16.12,16.12,0,0,1-3.13-6.12,74.21,74.21,0,0,0-5.23-11.26A9,9,0,0,0,49.21,33c-5.55-.71-22.88-.71-28.42,0a9.07,9.07,0,0,0-6.62,4.36A75.66,75.66,0,0,0,8.94,48.59a16.12,16.12,0,0,1-3.13,6.12,9.42,9.42,0,0,0-2,5.24c-.2,4.12,1,5,2.07,14.37a1.46,1.46,0,0,0,1.45,1.29H62.63a1.46,1.46,0,0,0,1.45-1.29c.3-2.62,1.19-7.93,1.19-7.93A19.28,19.28,0,0,0,66.14,60Z"/><path id="Path_408-2" data-name="Path 408-2" class="cls-3" d="M58.63,48A77.06,77.06,0,0,0,54,38.12a7.72,7.72,0,0,0-5.59-3.75c-5.28-.7-21.5-.7-26.74,0A7.72,7.72,0,0,0,16,38.12,79.21,79.21,0,0,0,11.35,48,300.92,300.92,0,0,0,58.63,48Z"/><path id="Path_409-2" data-name="Path 409-2" class="cls-4" d="M57.54,53.07a9.05,9.05,0,0,0-1.72.75A20.26,20.26,0,0,1,53,55.15c-1.59.6-1.86,1.51-1.86,1.51l-.14.19a2.55,2.55,0,0,0,2.52,3.88,30.45,30.45,0,0,0,7-1.86A2.48,2.48,0,0,0,62,57.17a1.42,1.42,0,0,0,0-.22,3.5,3.5,0,0,0-2.89-4A3.41,3.41,0,0,0,57.54,53.07Z"/><path id="Path_410-2" data-name="Path 410-2" class="cls-5" d="M60.85,67.46H57.4a.6.6,0,0,0-.59.58.56.56,0,0,0,.18.42l3.45,3.45a.58.58,0,0,0,.82,0,.58.58,0,0,0,.18-.42V68.05a.59.59,0,0,0-.58-.59Z"/><path id="Path_411-2" data-name="Path 411-2" class="cls-6" d="M64.08,74.32a1.46,1.46,0,0,1-1.45,1.29H56v3.85a2.46,2.46,0,0,0,2.47,2.47h4.17a2.47,2.47,0,0,0,2.47-2.47h0V67.4C64.83,69.07,64.3,72.41,64.08,74.32Z"/><path id="Path_412-2" data-name="Path 412-2" class="cls-14" d="M67,45.68a2,2,0,0,0-2-1.51H63.36a1.94,1.94,0,0,0-1.93,1.93h0v1.19h-.88l.51,1.2H63a7.12,7.12,0,0,0,2.91-.63A1.93,1.93,0,0,0,67,45.68Z"/><circle id="Ellipse_36-2" data-name="Ellipse 36-2" class="cls-8" cx="58.63" cy="56.18" r="2.43"/><circle id="Ellipse_37-2" data-name="Ellipse 37-2" class="cls-9" cx="53.74" cy="58.1" r="1.78"/><path id="Path_413-2" data-name="Path 413-2" class="cls-15" d="M49.12,58.1,46.33,63H23.67L20.88,58.1Z"/><path id="Path_414-2" data-name="Path 414-2" class="cls-4" d="M19,56.85l-.14-.19s-.27-.9-1.86-1.51a20.26,20.26,0,0,1-2.78-1.33,9.05,9.05,0,0,0-1.72-.75A3.5,3.5,0,0,0,8,55.3,3.58,3.58,0,0,0,7.91,57c0,.07,0,.14,0,.22a2.5,2.5,0,0,0,1.51,1.7,31.12,31.12,0,0,0,7,1.86,2.56,2.56,0,0,0,2.9-2.15A2.59,2.59,0,0,0,19,56.85Z"/><path id="Path_415-2" data-name="Path 415-2" class="cls-5" d="M12.6,67.46H9.15a.58.58,0,0,0-.58.58h0v3.45a.57.57,0,0,0,.58.59.61.61,0,0,0,.42-.17L13,68.46a.59.59,0,0,0,0-.83A.58.58,0,0,0,12.6,67.46Z"/><path id="Path_416-2" data-name="Path 416-2" class="cls-16" d="M58,73.48c-3.59-6.21-7.72-6-7.72-6H19.75s-4.13-.19-7.73,6H5.81l.08.8a1.46,1.46,0,0,0,1.45,1.33H62.66a1.46,1.46,0,0,0,1.45-1.33l.07-.8Z"/><path id="Path_417-2" data-name="Path 417-2" class="cls-6" d="M7.37,75.61a1.46,1.46,0,0,1-1.45-1.29c-.22-1.91-.75-5.25-1-6.92V79.46a2.47,2.47,0,0,0,2.48,2.47h4.16A2.47,2.47,0,0,0,14,79.46h0V75.61Z"/><path id="Path_418-2" data-name="Path 418-2" class="cls-17" d="M8.57,47.29V46.1a1.94,1.94,0,0,0-1.93-1.93H5a2,2,0,0,0-2,1.51,1.93,1.93,0,0,0,1.08,2.18A7.12,7.12,0,0,0,7,48.49H8.94l.51-1.2Z"/><circle id="Ellipse_38-2" data-name="Ellipse 38-2" class="cls-8" cx="11.37" cy="56.18" r="2.43"/><circle id="Ellipse_39-2" data-name="Ellipse 39-2" class="cls-9" cx="16.26" cy="58.1" r="1.78"/><g id="Group_663-2" data-name="Group 663-2"><path id="Path_419-2" data-name="Path 419-2" d="M47.91,69.16H22.09a.73.73,0,1,0,0,1.46H47.91a.73.73,0,1,0,0-1.46Z"/><path id="Path_420-2" data-name="Path 420-2" d="M47.91,72.08H22.09a.73.73,0,1,0,0,1.46H47.91a.73.73,0,0,0,0-1.46Z"/></g></g></g><g id="spanner"><g id="Group_669" data-name="Group 669"><path id="Path_436" data-name="Path 436" class="cls-18" d="M51,16.82a.2.2,0,0,0,0-.23.39.39,0,0,0-.23-.07l-5.64,1.55L43.4,12.19l5.68-1.63a.22.22,0,0,0,.16-.27h0c0-.06,0-.06-.06-.09a9.82,9.82,0,0,0-8.85-2.14c-3,.87-3.81,3.42-4.32,5.1-.07.23-.16.49-.22.68-2.06.66-17.37,5.09-19.6,5.66l-.46-.42c-1.3-1.19-3.2-2.94-6.34-2.07a9.66,9.66,0,0,0-6.33,6.42.25.25,0,0,0,.16.3.12.12,0,0,0,.1,0L9,22.17l1.69,5.88L5,29.68A.22.22,0,0,0,4.8,30h0c0,.06,0,.06.06.09a10.41,10.41,0,0,0,1.68,1.19,9.62,9.62,0,0,0,7.2.91c3-.87,3.8-3.42,4.31-5.1.07-.23.17-.49.22-.68,2.07-.66,17.38-5.09,19.61-5.66l.45.41c1.26,1.18,3.23,3,6.32,2.12A9.76,9.76,0,0,0,51,16.82Z"/></g></g></svg>