<svg id="Layer_1" data-name="Layer 1" xmlns="http://www.w3.org/2000/svg" xmlns:xlink="http://www.w3.org/1999/xlink" viewBox="0 0 90 90"><defs><style>.cls-1{fill:#3c3c3d;}.cls-2{fill:#d4d4d3;}.cls-3{fill:#575757;}.cls-4{fill:url(#linear-gradient);}</style><linearGradient id="linear-gradient" x1="-973.04" y1="-306.21" x2="-972.17" y2="-307.08" gradientTransform="matrix(24.93, 24.93, 25.04, -25.04, 31969.28, 16595.2)" gradientUnits="userSpaceOnUse"><stop offset="0" stop-color="#606082"/><stop offset="1" stop-color="#414141"/></linearGradient></defs><g id="Group_776" data-name="Group 776"><g id="Group_775" data-name="Group 775"><path id="Path_2295" data-name="Path 2295" class="cls-1" d="M73.21,72.94A5.94,5.94,0,0,0,68.94,71s1.4-1-1.27-2.46c0,0-1.4-.7-4.41-1.84A22.64,22.64,0,0,0,45,30.66h0A22.65,22.65,0,0,0,26.74,66.71c-3,1.14-4.41,1.84-4.41,1.84C19.66,70,21.06,71,21.06,71a6,6,0,0,0-4.27,1.93A2.78,2.78,0,0,0,16,74.79C16,76.23,18.67,76,20.1,76H69.9c1.43,0,4.08.28,4.08-1.16A2.78,2.78,0,0,0,73.21,72.94Zm-20-6.23A15.75,15.75,0,0,1,45,69h0a15.69,15.69,0,0,1,0-31.37h0a15.69,15.69,0,0,1,8.16,29.09Z"/><path id="Path_2296" data-name="Path 2296" class="cls-2" d="M45,37.61h0A15.69,15.69,0,0,0,45,69h0a15.69,15.69,0,0,0,.25-31.38Z"/><path id="Path_2297" data-name="Path 2297" class="cls-3" d="M39.59,47.89a2.87,2.87,0,1,0-4.07,0,2.88,2.88,0,0,0,4.07,0Z"/><path id="Path_2298" data-name="Path 2298" class="cls-3" d="M39.59,62.78a2.87,2.87,0,1,0-4.07,0,2.88,2.88,0,0,0,4.07,0Z"/><path id="Path_2299" data-name="Path 2299" class="cls-3" d="M37.35,53.3a2.88,2.88,0,1,0-2.88,2.88,2.87,2.87,0,0,0,2.88-2.88Z"/><path id="Path_2300" data-name="Path 2300" class="cls-3" d="M50.41,47.89a2.87,2.87,0,1,1,4.07,0,2.89,2.89,0,0,1-4.07,0Z"/><path id="Path_2301" data-name="Path 2301" class="cls-3" d="M50.41,62.78a2.87,2.87,0,1,1,4.07,0,2.89,2.89,0,0,1-4.07,0Z"/><path id="Path_2302" data-name="Path 2302" class="cls-3" d="M45,61h0a2.88,2.88,0,0,0-.13,5.75H45A2.88,2.88,0,0,0,45,61Z"/><path id="Path_2303" data-name="Path 2303" class="cls-3" d="M45,39.91h0a2.88,2.88,0,0,0,0,5.75h0a2.88,2.88,0,0,0,0-5.75h0Z"/><path id="Path_2304" data-name="Path 2304" class="cls-3" d="M52.65,53.3a2.88,2.88,0,1,1,2.88,2.88,2.87,2.87,0,0,1-2.88-2.88Z"/></g><g id="spanner"><g id="Group_669" data-name="Group 669"><path id="Path_436" data-name="Path 436" class="cls-4" d="M66.45,24.27a.18.18,0,0,0,0-.2A.32.32,0,0,0,66.3,24L61,23.89V18.38h5.32a.21.21,0,0,0,.21-.2h0c0-.06,0-.06,0-.09A8.84,8.84,0,0,0,59.41,14c-2.84,0-4.14,2-5,3.34-.12.18-.27.39-.35.54-2,.06-16.31.09-18.39,0l-.29-.47c-.83-1.36-2.05-3.35-5-3.38a8.69,8.69,0,0,0-7.08,4,.22.22,0,0,0,.06.29.16.16,0,0,0,.09,0l5.27.06V24H23.42a.2.2,0,0,0-.21.19h0c0,.06,0,.06,0,.09a8.73,8.73,0,0,0,7.17,4c2.84,0,4.14-2,5-3.34.11-.18.26-.39.35-.54,2-.06,16.31-.09,18.38,0l.29.48c.8,1.33,2,3.4,5,3.4A8.78,8.78,0,0,0,66.45,24.27Z"/></g></g></g></svg>